<svg width="116" height="57" viewBox="0 0 116 57" fill="none" xmlns="http://www.w3.org/2000/svg">
<path d="M20.836 35.4943H13.5645V17.2651C14.8324 17.2651 15.9897 18.2975 15.9897 19.7011V33.0669H18.4107C19.768 33.0669 20.836 34.159 20.836 35.4943Z" fill="#895B1A"/>
<path d="M25.6823 23.1268V38.1095C25.6823 39.0779 24.8824 39.7306 24.0654 39.7306H13.5602C13.5602 38.3015 14.7303 37.2989 15.9897 37.2989H23.2613V23.9331H20.2318V32.4355C18.8107 32.4355 17.8108 31.2581 17.8108 30.0038V21.4971H24.0697C25.1291 21.4971 25.6865 22.3973 25.6865 23.1183L25.6823 23.1268Z" fill="#895B1A"/>
<path d="M25.6823 19.6968H20.2318C18.8873 19.6968 17.8066 18.5791 17.8066 17.2651H23.2613C24.6228 17.2651 25.6865 18.3871 25.6865 19.6968H25.6823Z" fill="#895B1A"/>
<path d="M31.7327 35.7247H33.592C33.9239 35.7247 34.192 35.9935 34.192 36.3263V36.6889H30.5456V29.4066H30.9966C31.4051 29.4066 31.7369 29.7393 31.7369 30.1489V35.7247H31.7327Z" fill="#895B1A"/>
<path d="M35.6216 29.4066C36.0301 29.4066 36.362 29.7393 36.362 30.1489V34.0481C36.362 34.5985 36.5066 35.0165 36.796 35.2938C37.0853 35.5754 37.4852 35.7119 38.0043 35.7119C38.5234 35.7119 38.9319 35.5711 39.2212 35.2938C39.5105 35.0165 39.6552 34.5985 39.6552 34.0481V29.4066H40.1062C40.5147 29.4066 40.8466 29.7393 40.8466 30.1489V34.0268C40.8466 34.6198 40.7189 35.1232 40.4594 35.537C40.1998 35.9508 39.8552 36.258 39.4255 36.4585C38.9915 36.6633 38.5149 36.7614 37.9958 36.7614C37.4767 36.7614 36.9959 36.659 36.5704 36.4585C36.1407 36.258 35.8003 35.9508 35.5535 35.537C35.3025 35.1232 35.1791 34.6241 35.1791 34.0268V29.4066H35.6301H35.6216Z" fill="#895B1A"/>
<path d="M45.7226 33.0498L47.982 36.6846H46.9778C46.7693 36.6846 46.5779 36.578 46.4715 36.403L45.0078 34.0439L43.7186 36.258C43.5654 36.5225 43.2846 36.6846 42.9782 36.6846H42.1443L44.4036 33.0498L42.1358 29.4023H42.9995C43.2931 29.4023 43.5697 29.5559 43.7228 29.8076L45.1227 32.0644L46.497 29.7009C46.6034 29.5175 46.7991 29.4023 47.0118 29.4023H47.9947L45.7269 33.0498H45.7226Z" fill="#895B1A"/>
<path d="M49.7307 29.4066C50.1392 29.4066 50.471 29.7393 50.471 30.1489V34.0481C50.471 34.5985 50.6157 35.0165 50.905 35.2938C51.1944 35.5754 51.5943 35.7119 52.1134 35.7119C52.6325 35.7119 53.041 35.5711 53.3303 35.2938C53.6196 35.0165 53.7643 34.5985 53.7643 34.0481V29.4066H54.2153C54.6238 29.4066 54.9557 29.7393 54.9557 30.1489V34.0268C54.9557 34.6198 54.828 35.1232 54.5685 35.537C54.3089 35.9508 53.9643 36.258 53.5345 36.4585C53.1005 36.6633 52.624 36.7614 52.1049 36.7614C51.5858 36.7614 51.105 36.659 50.6795 36.4585C50.2498 36.258 49.9094 35.9508 49.6626 35.537C49.4116 35.1232 49.2882 34.6241 49.2882 34.0268V29.4066H49.7392H49.7307Z" fill="#895B1A"/>
<path d="M60.0998 36.386L58.7723 34.0737C58.6659 33.886 58.4659 33.7751 58.2532 33.7751H57.6915V36.0959C57.6915 36.4244 57.4277 36.6889 57.1001 36.6889H56.5002V29.4066H59.0063C59.5637 29.4066 60.0359 29.5047 60.4231 29.7009C60.8103 29.8972 61.0997 30.1574 61.2911 30.4859C61.4826 30.8144 61.5805 31.1813 61.5805 31.5866C61.5805 32.0601 61.4443 32.491 61.1677 32.8792C60.8912 33.2674 60.4699 33.5319 59.8998 33.6684L61.6953 36.6846H60.6189C60.4061 36.6846 60.2061 36.5694 60.0998 36.386ZM57.6915 32.8195H59.0063C59.453 32.8195 59.7892 32.7086 60.0147 32.4825C60.2402 32.2606 60.3551 31.9577 60.3551 31.5823C60.3551 31.2069 60.2444 30.9082 60.0189 30.6949C59.7977 30.4816 59.4573 30.375 59.0063 30.375H57.6915V32.8152V32.8195Z" fill="#895B1A"/>
<path d="M68.4861 29.4066L66.0821 34.0481V36.6889H64.8907V34.0481L62.4782 29.4066H63.3164C63.6143 29.4066 63.8908 29.5815 64.0185 29.8502L65.4907 32.9773L66.9713 29.8289C67.0947 29.5687 67.3543 29.4023 67.6394 29.4023H68.4861V29.4066Z" fill="#895B1A"/>
<path d="M31.7327 26.6122H33.4474C33.8559 26.6122 34.1877 26.945 34.1877 27.3545V27.5764H30.5413V20.2941H30.9923C31.4008 20.2941 31.7327 20.6268 31.7327 21.0364V26.6122Z" fill="#895B1A"/>
<path d="M39.5829 20.742C40.1658 21.0406 40.6126 21.463 40.9317 22.0219C41.2508 22.5765 41.4082 23.2249 41.4082 23.9672C41.4082 24.7095 41.2508 25.3495 40.9317 25.8955C40.6126 26.4416 40.1658 26.8597 39.5829 27.1498C39 27.4399 38.3234 27.5849 37.5491 27.5849H35.1749V20.3026H37.5491C38.3234 20.3026 39 20.4519 39.5829 20.7463V20.742ZM39.5063 25.9126C39.9573 25.4518 40.1871 24.8034 40.1871 23.963C40.1871 23.1225 39.9616 22.457 39.5063 21.9835C39.0553 21.5099 38.4 21.271 37.5533 21.271H36.3705V26.6037H37.5533C38.4043 26.6037 39.0553 26.3733 39.5063 25.9126Z" fill="#895B1A"/>
<path d="M50.1221 23.5107C49.9477 23.8392 49.6711 24.108 49.2882 24.3128C48.9053 24.5176 48.4117 24.6199 47.816 24.6199H46.5013V26.8341C46.5013 27.2436 46.1694 27.5764 45.7609 27.5764H45.3099V20.2941H47.816C48.3734 20.2941 48.8457 20.3922 49.2329 20.5842C49.6201 20.7761 49.9094 21.0364 50.1009 21.3649C50.2923 21.6934 50.3902 22.0603 50.3902 22.4655C50.3902 22.8367 50.3051 23.1865 50.1307 23.515L50.1221 23.5107ZM48.8244 23.3358C49.0457 23.1311 49.1605 22.8367 49.1605 22.4613C49.1605 21.6635 48.7095 21.2667 47.8118 21.2667H46.497V23.6473H47.8118C48.2628 23.6473 48.6032 23.5449 48.8244 23.3401V23.3358Z" fill="#895B1A"/>
<path d="M52.7176 21.2582V23.3956H55.2237V23.6302C55.2237 24.0397 54.8918 24.3725 54.4834 24.3725H52.7133V26.6037H54.794C55.2024 26.6037 55.5343 26.9365 55.5343 27.346V27.5806H51.522V20.2898H55.5343V20.5244C55.5343 20.934 55.2024 21.2667 54.794 21.2667H52.7133L52.7176 21.2582Z" fill="#895B1A"/>
<path d="M60.5593 27.2052L59.3126 25.0338C59.1807 24.8034 58.9382 24.6626 58.6701 24.6626H58.1893V26.8341C58.1893 27.2436 57.8575 27.5764 57.449 27.5764H56.998V20.2941H59.5041C60.0615 20.2941 60.5338 20.3922 60.921 20.5884C61.3081 20.7847 61.5975 21.0449 61.7889 21.3734C61.9804 21.7019 62.0783 22.0688 62.0783 22.4741C62.0783 22.9476 61.9421 23.3785 61.6656 23.7667C61.389 24.1549 60.9678 24.4194 60.3976 24.5559L62.1932 27.5721H61.1975C60.9337 27.5721 60.6869 27.4313 60.555 27.201L60.5593 27.2052ZM58.1893 23.7113H59.5041C59.9509 23.7113 60.287 23.6003 60.5125 23.3742C60.738 23.1524 60.8529 22.8495 60.8529 22.4741C60.8529 22.0986 60.7422 21.8 60.5167 21.5867C60.2955 21.3734 59.9551 21.2667 59.5041 21.2667H58.1893V23.707V23.7113Z" fill="#895B1A"/>
<path d="M67.8776 20.2941V20.5287C67.8776 20.9383 67.5458 21.271 67.1373 21.271H64.7929V23.4169H67.5585V23.6515C67.5585 24.0611 67.2266 24.3938 66.8182 24.3938H64.7929V26.8383C64.7929 27.2479 64.461 27.5806 64.0525 27.5806H63.6015V20.2983H67.8776V20.2941Z" fill="#895B1A"/>
<path d="M69.4264 20.2941C69.8349 20.2941 70.1668 20.6268 70.1668 21.0364V24.9356C70.1668 25.486 70.3114 25.904 70.6007 26.1813C70.8901 26.4629 71.29 26.5994 71.8091 26.5994C72.3282 26.5994 72.7367 26.4586 73.026 26.1813C73.3153 25.904 73.46 25.486 73.46 24.9356V20.2941H73.911C74.3195 20.2941 74.6514 20.6268 74.6514 21.0364V24.9143C74.6514 25.5073 74.5237 26.0107 74.2642 26.4245C74.0046 26.8383 73.66 27.1455 73.2302 27.346C72.7962 27.5508 72.3197 27.6489 71.8006 27.6489C71.2815 27.6489 70.8007 27.5465 70.3752 27.346C69.9455 27.1455 69.6051 26.8383 69.3583 26.4245C69.1073 26.0107 68.9839 25.5116 68.9839 24.9143V20.2941H69.4349H69.4264Z" fill="#895B1A"/>
<path d="M83.8461 21.0364V26.8341C83.8461 27.2436 83.5142 27.5764 83.1058 27.5764H82.6547V22.5893L80.6082 27.1967C80.506 27.4271 80.2763 27.5764 80.0252 27.5764C79.7742 27.5764 79.5487 27.4271 79.4423 27.201L77.383 22.5893V26.8341C77.383 27.2436 77.0511 27.5764 76.6426 27.5764H76.1916V20.2941H77C77.2894 20.2941 77.5574 20.4647 77.6766 20.7335L80.0295 26.0064L82.5696 20.2941H83.1058C83.5142 20.2941 83.8461 20.6268 83.8461 21.0364Z" fill="#895B1A"/>
<path d="M86.6075 21.2582V23.3956H89.1136V23.6302C89.1136 24.0397 88.7817 24.3725 88.3733 24.3725H86.6032V26.6037H88.6839C89.0923 26.6037 89.4242 26.9365 89.4242 27.346V27.5806H85.4119V20.2898H89.4242V20.5244C89.4242 20.934 89.0923 21.2667 88.6839 21.2667H86.6032L86.6075 21.2582Z" fill="#895B1A"/>
<path d="M95.0534 27.1754C94.4875 26.8597 94.0365 26.416 93.7046 25.8443C93.3727 25.2769 93.2068 24.6327 93.2068 23.9203C93.2068 23.2078 93.3727 22.5679 93.7046 22.0048C94.0365 21.4374 94.4832 20.998 95.0534 20.678C95.6193 20.3623 96.2447 20.2002 96.917 20.2002C97.5893 20.2002 98.2232 20.3581 98.7934 20.678C99.3593 20.998 99.8103 21.4374 100.138 22.0048C100.466 22.5722 100.627 23.2078 100.627 23.9203C100.627 24.6327 100.461 25.2727 100.138 25.8443C99.8103 26.4117 99.3635 26.8554 98.7934 27.1754C98.2275 27.4953 97.602 27.6532 96.917 27.6532C96.232 27.6532 95.6193 27.4953 95.0534 27.1754ZM98.2062 26.2837C98.5806 26.0619 98.8785 25.7505 99.0912 25.3409C99.304 24.9314 99.4103 24.4578 99.4103 23.9203C99.4103 23.3828 99.304 22.9092 99.0912 22.5039C98.8785 22.0986 98.5849 21.7872 98.2062 21.5696C97.8318 21.3521 97.402 21.2454 96.9212 21.2454C96.4404 21.2454 96.0107 21.3521 95.6363 21.5696C95.2619 21.7872 94.964 22.0986 94.7513 22.5039C94.5385 22.9092 94.4322 23.3828 94.4322 23.9203C94.4322 24.4578 94.5385 24.9314 94.7513 25.3409C94.964 25.7505 95.2576 26.0619 95.6363 26.2837C96.0107 26.5056 96.4404 26.6122 96.9212 26.6122C97.402 26.6122 97.8318 26.5013 98.2062 26.2837Z" fill="#895B1A"/>
<path d="M102.993 21.0364V26.8341C102.993 27.2436 102.661 27.5764 102.253 27.5764H101.802V20.2941H102.253C102.661 20.2941 102.993 20.6268 102.993 21.0364Z" fill="#895B1A"/>
<path d="M105.627 26.6122H107.341C107.75 26.6122 108.082 26.945 108.082 27.3545V27.5764H104.435V20.2941H104.886C105.295 20.2941 105.627 20.6268 105.627 21.0364V26.6122Z" fill="#895B1A"/>
</svg>
