<svg width="16" height="16" viewBox="0 0 16 16" fill="none" xmlns="http://www.w3.org/2000/svg">
<g clip-path="url(#clip0_1064_269)">
<path d="M10.4713 6.47133L8.94267 8L10.4713 9.52867C10.732 9.78933 10.732 10.2107 10.4713 10.4713C10.3413 10.6013 10.1707 10.6667 10 10.6667C9.82933 10.6667 9.65867 10.6013 9.52867 10.4713L8 8.94267L6.47133 10.4713C6.34133 10.6013 6.17067 10.6667 6 10.6667C5.82933 10.6667 5.65867 10.6013 5.52867 10.4713C5.268 10.2107 5.268 9.78933 5.52867 9.52867L7.05733 8L5.52867 6.47133C5.268 6.21067 5.268 5.78933 5.52867 5.52867C5.78933 5.268 6.21067 5.268 6.47133 5.52867L8 7.05733L9.52867 5.52867C9.78933 5.268 10.2107 5.268 10.4713 5.52867C10.732 5.78933 10.732 6.21067 10.4713 6.47133ZM16 8C16 12.4113 12.4113 16 8 16C3.58867 16 0 12.4113 0 8C0 3.58867 3.58867 0 8 0C12.4113 0 16 3.58867 16 8ZM14.6667 8C14.6667 4.324 11.676 1.33333 8 1.33333C4.324 1.33333 1.33333 4.324 1.33333 8C1.33333 11.676 4.324 14.6667 8 14.6667C11.676 14.6667 14.6667 11.676 14.6667 8Z" fill="black"/>
</g>
<defs>
<clipPath id="clip0_1064_269">
<rect width="16" height="16" fill="white"/>
</clipPath>
</defs>
</svg>
