<svg width="16" height="16" viewBox="0 0 16 16" fill="none" xmlns="http://www.w3.org/2000/svg">
<g clip-path="url(#clip0_1062_54)">
<path d="M4.66668 16C5.40306 16 6.00001 15.403 6.00001 14.6667C6.00001 13.9303 5.40306 13.3333 4.66668 13.3333C3.9303 13.3333 3.33334 13.9303 3.33334 14.6667C3.33334 15.403 3.9303 16 4.66668 16Z" fill="black"/>
<path d="M11.3333 16C12.0697 16 12.6667 15.403 12.6667 14.6667C12.6667 13.9303 12.0697 13.3333 11.3333 13.3333C10.597 13.3333 10 13.9303 10 14.6667C10 15.403 10.597 16 11.3333 16Z" fill="black"/>
<path d="M15.3333 2H14V0.666667C14 0.489856 13.9298 0.320286 13.8047 0.195262C13.6797 0.0702379 13.5101 0 13.3333 0C13.1565 0 12.9869 0.0702379 12.8619 0.195262C12.7369 0.320286 12.6667 0.489856 12.6667 0.666667V2H11.3333C11.1565 2 10.9869 2.07024 10.8619 2.19526C10.7369 2.32029 10.6667 2.48986 10.6667 2.66667C10.6667 2.84348 10.7369 3.01305 10.8619 3.13807C10.9869 3.2631 11.1565 3.33333 11.3333 3.33333H12.6667V4.66667C12.6667 4.84348 12.7369 5.01305 12.8619 5.13807C12.9869 5.2631 13.1565 5.33333 13.3333 5.33333C13.5101 5.33333 13.6797 5.2631 13.8047 5.13807C13.9298 5.01305 14 4.84348 14 4.66667V3.33333H15.3333C15.5101 3.33333 15.6797 3.2631 15.8047 3.13807C15.9298 3.01305 16 2.84348 16 2.66667C16 2.48986 15.9298 2.32029 15.8047 2.19526C15.6797 2.07024 15.5101 2 15.3333 2Z" fill="black"/>
<path d="M14.514 6.484C14.4278 6.46787 14.3393 6.46901 14.2535 6.48735C14.1678 6.5057 14.0865 6.54088 14.0144 6.59086C13.9424 6.64084 13.881 6.70463 13.8337 6.77852C13.7865 6.85242 13.7544 6.93495 13.7393 7.02133C13.6562 7.48277 13.4136 7.90033 13.0539 8.20106C12.6941 8.5018 12.2402 8.6666 11.7713 8.66667H3.612L2.98533 3.33333H8.66667C8.84348 3.33333 9.01305 3.2631 9.13807 3.13807C9.2631 3.01305 9.33333 2.84348 9.33333 2.66667C9.33333 2.48986 9.2631 2.32029 9.13807 2.19526C9.01305 2.07024 8.84348 2 8.66667 2H2.828L2.8 1.76533C2.74255 1.27907 2.50871 0.830769 2.14279 0.505403C1.77688 0.180036 1.30432 0.000208558 0.814667 0L0.666667 0C0.489856 0 0.320286 0.0702379 0.195262 0.195262C0.0702379 0.320286 0 0.489856 0 0.666667C0 0.843478 0.0702379 1.01305 0.195262 1.13807C0.320286 1.2631 0.489856 1.33333 0.666667 1.33333H0.814667C0.977956 1.33335 1.13556 1.3933 1.25758 1.50181C1.3796 1.61032 1.45756 1.75983 1.47667 1.922L2.394 9.722C2.48923 10.5332 2.87899 11.2812 3.48927 11.824C4.09956 12.3668 4.8879 12.6667 5.70467 12.6667H12.6667C12.8435 12.6667 13.013 12.5964 13.1381 12.4714C13.2631 12.3464 13.3333 12.1768 13.3333 12C13.3333 11.8232 13.2631 11.6536 13.1381 11.5286C13.013 11.4036 12.8435 11.3333 12.6667 11.3333H5.70467C5.29101 11.3334 4.88751 11.2052 4.54974 10.9664C4.21197 10.7276 3.95655 10.39 3.81867 10H11.7713C12.5528 10.0001 13.3094 9.72561 13.909 9.22455C14.5087 8.72348 14.9132 8.02768 15.052 7.25867C15.0676 7.17247 15.066 7.08405 15.0474 6.99847C15.0288 6.91288 14.9935 6.83179 14.9435 6.75985C14.8936 6.68791 14.8299 6.62652 14.7562 6.57919C14.6825 6.53185 14.6002 6.49951 14.514 6.484Z" fill="black"/>
</g>
<defs>
<clipPath id="clip0_1062_54">
<rect width="16" height="16" fill="white"/>
</clipPath>
</defs>
</svg>
